# xmcd
#
# Track frame offsets: 
#        150
#        15325
#        34480
#        55687
#        74602
#        96570
#        121622
#        143435
#        162082
#        174447
#        193330
#        213270
#        233552
#        265590
#
# Disc length: 4440 seconds
#
# Revision: 1
# Processed by: cddbd v1.5.2PL0 Copyright (c) Steve Scherf et al.
# Submitted via: ExactAudioCopy v0.95b4
#
DISCID=b811560e
DTITLE=Doves - Some Cities  [Japan Edition and Bonus Tracks][FLAC]
DYEAR=2005
DGENRE=Rock
TTITLE0=Some Cities
TTITLE1=Black And White Town
TTITLE2=Almost Forgot Myself
TTITLE3=Snowden
TTITLE4=The Storm
TTITLE5=Walk In Fire
TTITLE6=One Of These Days
TTITLE7=Someday Soon
TTITLE8=Shadows Of Salford
TTITLE9=Sky Starts Falling
TTITLE10=Ambition
TTITLE11=Eleven Miles Out [Bonus Track]
TTITLE12=At The Tower [Bonus Track]
TTITLE13=data
EXTD=
EXTT0=
EXTT1=
EXTT2=
EXTT3=
EXTT4=
EXTT5=
EXTT6=
EXTT7=
EXTT8=
EXTT9=
EXTT10=
EXTT11=
EXTT12=
EXTT13=
PLAYORDER=
